<?xml version="1.0" encoding="UTF-8"?>
<svg width="396px" height="463px" viewBox="0 0 396 463" version="1.1" xmlns="http://www.w3.org/2000/svg" xmlns:xlink="http://www.w3.org/1999/xlink">
    <!-- Generator: Sketch 50.2 (55047) - http://www.bohemiancoding.com/sketch -->
    <title>Group</title>
    <desc>Created with Sketch.</desc>
    <defs></defs>
    <g id="Page-1" stroke="none" stroke-width="1" fill="none" fill-rule="evenodd">
        <g id="Group" fill="#FFFFFF">
            <path d="M0,183 L396,183 L396,280 L0,280 L0,183 Z M21.808,209.864 L21.808,253 L49.392,253 L49.392,246.984 L28.592,246.984 L28.592,233.864 L47.728,233.864 L47.728,227.848 L28.592,227.848 L28.592,215.944 L49.008,215.944 L49.008,209.864 L21.808,209.864 Z M63.728,253 L63.728,209.864 L56.944,209.864 L56.944,253 L63.728,253 Z M77.744,240.136 L97.584,240.136 C97.7973344,239.367996 97.9786659,238.493338 98.128,237.512 C98.2773341,236.530662 98.352,235.528005 98.352,234.504 C98.352,232.58399 98.085336,230.813341 97.552,229.192 C97.018664,227.570659 96.2080054,226.184006 95.12,225.032 C94.0319946,223.879994 92.688008,222.984003 91.088,222.344 C89.487992,221.703997 87.6426771,221.384 85.552,221.384 C82.9919872,221.384 80.7946758,221.799996 78.96,222.632 C77.1253242,223.464004 75.6213392,224.615993 74.448,226.088 C73.2746608,227.560007 72.4106694,229.277324 71.856,231.24 C71.3013306,233.202676 71.024,235.293322 71.024,237.512 C71.024,239.986679 71.3439968,242.226657 71.984,244.232 C72.6240032,246.237343 73.5839936,247.943993 74.864,249.352 C76.1440064,250.760007 77.7439904,251.83733 79.664,252.584 C81.5840096,253.33067 83.8239872,253.704 86.384,253.704 C90.4373536,253.704 93.8506528,252.957341 96.624,251.464 L95.088,246.6 C93.8506605,247.197336 92.5493402,247.645332 91.184,247.944 C89.8186598,248.242668 88.4533402,248.392 87.088,248.392 C84.5279872,248.392 82.4266749,247.720007 80.784,246.376 C79.1413251,245.031993 78.1280019,242.952014 77.744,240.136 Z M85.616,226.44 C87.8773446,226.44 89.5093283,227.15466 90.512,228.584 C91.5146717,230.01334 92.016,232.02932 92.016,234.632 L92.016,235.784 L77.552,235.784 C77.7653344,232.967986 78.5226602,230.706675 79.824,229 C81.1253398,227.293325 83.0559872,226.44 85.616,226.44 Z M118.96,248.392 C115.887985,248.392 113.626674,247.389343 112.176,245.384 C110.725326,243.378657 110,240.754683 110,237.512 C110,234.311984 110.71466,231.709343 112.144,229.704 C113.57334,227.698657 115.866651,226.696 119.024,226.696 C121.797347,226.696 124.335988,227.293327 126.64,228.488 L128.112,223.624 C126.74666,222.855996 125.274675,222.290668 123.696,221.928 C122.117325,221.565332 120.474675,221.384 118.768,221.384 C116.122653,221.384 113.829343,221.799996 111.888,222.632 C109.946657,223.464004 108.336006,224.615993 107.056,226.088 C105.775994,227.560007 104.816003,229.277324 104.176,231.24 C103.535997,233.202676 103.216,235.293322 103.216,237.512 C103.216,239.773345 103.535997,241.885324 104.176,243.848 C104.816003,245.810676 105.775994,247.527993 107.056,249 C108.336006,250.472007 109.93599,251.623996 111.856,252.456 C113.77601,253.288004 116.015987,253.704 118.576,253.704 C122.330685,253.704 125.637319,252.893341 128.496,251.272 L126.96,246.408 C125.72266,247.09067 124.42134,247.591998 123.056,247.912 C121.69066,248.232002 120.32534,248.392 118.96,248.392 Z M142.512,243.976 L142.512,227.144 L151.664,227.144 L151.664,222.088 L142.512,222.088 L142.512,213.256 L137.584,213.256 L135.984,222.088 L131.184,222.088 L131.184,227.144 L135.92,227.144 L135.92,243.976 C135.92,247.346684 136.63466,249.810659 138.064,251.368 C139.49334,252.925341 141.743985,253.704 144.816,253.704 C146.352008,253.704 147.685328,253.554668 148.816,253.256 C149.946672,252.957332 151.002662,252.509336 151.984,251.912 L150.512,246.984 C149.14666,247.837338 147.632008,248.264 145.968,248.264 C144.645327,248.264 143.738669,247.901337 143.248,247.176 C142.757331,246.450663 142.512,245.384007 142.512,243.976 Z M164.784,227.016 L163.76,222.088 L158,222.088 L158,253 L164.784,253 L164.784,232.072 C165.46667,230.663993 166.394661,229.608004 167.568,228.904 C168.741339,228.199996 170.074659,227.848 171.568,227.848 C173.189341,227.848 174.490662,228.274662 175.472,229.128 L177.136,222.728 C176.837332,222.514666 176.325337,222.237335 175.6,221.896 C174.874663,221.554665 173.936006,221.384 172.784,221.384 C171.759995,221.384 170.832004,221.554665 170,221.896 C169.167996,222.237335 168.432003,222.674664 167.792,223.208 C167.151997,223.741336 166.586669,224.34933 166.096,225.032 C165.605331,225.71467 165.168002,226.375997 164.784,227.016 Z M187.12,237.512 C187.12,234.311984 187.781327,231.709343 189.104,229.704 C190.426673,227.698657 192.517319,226.696 195.376,226.696 C198.234681,226.696 200.335993,227.698657 201.68,229.704 C203.024007,231.709343 203.696,234.311984 203.696,237.512 C203.696,240.754683 203.024007,243.378657 201.68,245.384 C200.335993,247.389343 198.234681,248.392 195.376,248.392 C192.517319,248.392 190.426673,247.389343 189.104,245.384 C187.781327,243.378657 187.12,240.754683 187.12,237.512 Z M180.336,237.512 C180.336,239.773345 180.64533,241.885324 181.264,243.848 C181.88267,245.810676 182.81066,247.527993 184.048,249 C185.28534,250.472007 186.842657,251.623996 188.72,252.456 C190.597343,253.288004 192.815987,253.704 195.376,253.704 C197.936013,253.704 200.154657,253.288004 202.032,252.456 C203.909343,251.623996 205.477327,250.472007 206.736,249 C207.994673,247.527993 208.922664,245.810676 209.52,243.848 C210.117336,241.885324 210.416,239.773345 210.416,237.512 C210.416,235.293322 210.117336,233.202676 209.52,231.24 C208.922664,229.277324 207.994673,227.560007 206.736,226.088 C205.477327,224.615993 203.909343,223.464004 202.032,222.632 C200.154657,221.799996 197.936013,221.384 195.376,221.384 C192.815987,221.384 190.597343,221.799996 188.72,222.632 C186.842657,223.464004 185.28534,224.615993 184.048,226.088 C182.81066,227.560007 181.88267,229.277324 181.264,231.24 C180.64533,233.202676 180.336,235.293322 180.336,237.512 Z M235.184,246.216 L242.032,246.216 L250.032,227.976 C250.757337,226.354659 251.375997,224.722675 251.888,223.08 C252.400003,221.437325 252.890664,219.720009 253.36,217.928 L253.488,217.928 C253.359999,218.909338 253.242667,219.933328 253.136,221 C253.029333,222.066672 252.944,223.111995 252.88,224.136 C252.816,225.160005 252.762667,226.119996 252.72,227.016 C252.677333,227.912004 252.656,228.679997 252.656,229.32 L252.656,253 L259.44,253 L259.44,209.864 L251.44,209.864 L241.968,231.304 C241.114662,233.181343 240.421336,234.962658 239.888,236.648 C239.354664,238.333342 238.938668,239.79466 238.64,241.032 L238.512,241.032 C238.255999,239.79466 237.850669,238.333342 237.296,236.648 C236.741331,234.962658 236.037338,233.181343 235.184,231.304 L225.776,209.864 L217.776,209.864 L217.776,253 L224.56,253 L224.56,229.32 C224.56,228.679997 224.538667,227.912004 224.496,227.016 C224.453333,226.119996 224.4,225.160005 224.336,224.136 C224.272,223.111995 224.176001,222.066672 224.048,221 C223.919999,219.933328 223.792001,218.909338 223.664,217.928 L223.856,217.928 C224.325336,219.720009 224.815997,221.437325 225.328,223.08 C225.840003,224.722675 226.458663,226.354659 227.184,227.976 L235.184,246.216 Z M273.584,237.512 C273.584,234.311984 274.245327,231.709343 275.568,229.704 C276.890673,227.698657 278.981319,226.696 281.84,226.696 C284.698681,226.696 286.799993,227.698657 288.144,229.704 C289.488007,231.709343 290.16,234.311984 290.16,237.512 C290.16,240.754683 289.488007,243.378657 288.144,245.384 C286.799993,247.389343 284.698681,248.392 281.84,248.392 C278.981319,248.392 276.890673,247.389343 275.568,245.384 C274.245327,243.378657 273.584,240.754683 273.584,237.512 Z M266.8,237.512 C266.8,239.773345 267.10933,241.885324 267.728,243.848 C268.34667,245.810676 269.27466,247.527993 270.512,249 C271.74934,250.472007 273.306657,251.623996 275.184,252.456 C277.061343,253.288004 279.279987,253.704 281.84,253.704 C284.400013,253.704 286.618657,253.288004 288.496,252.456 C290.373343,251.623996 291.941327,250.472007 293.2,249 C294.458673,247.527993 295.386664,245.810676 295.984,243.848 C296.581336,241.885324 296.88,239.773345 296.88,237.512 C296.88,235.293322 296.581336,233.202676 295.984,231.24 C295.386664,229.277324 294.458673,227.560007 293.2,226.088 C291.941327,224.615993 290.373343,223.464004 288.496,222.632 C286.618657,221.799996 284.400013,221.384 281.84,221.384 C279.279987,221.384 277.061343,221.799996 275.184,222.632 C273.306657,223.464004 271.74934,224.615993 270.512,226.088 C269.27466,227.560007 268.34667,229.277324 267.728,231.24 C267.10933,233.202676 266.8,235.293322 266.8,237.512 Z M311.536,243.976 L311.536,227.144 L320.688,227.144 L320.688,222.088 L311.536,222.088 L311.536,213.256 L306.608,213.256 L305.008,222.088 L300.208,222.088 L300.208,227.144 L304.944,227.144 L304.944,243.976 C304.944,247.346684 305.65866,249.810659 307.088,251.368 C308.51734,252.925341 310.767985,253.704 313.84,253.704 C315.376008,253.704 316.709328,253.554668 317.84,253.256 C318.970672,252.957332 320.026662,252.509336 321.008,251.912 L319.536,246.984 C318.17066,247.837338 316.656008,248.264 314.992,248.264 C313.669327,248.264 312.762669,247.901337 312.272,247.176 C311.781331,246.450663 311.536,245.384007 311.536,243.976 Z M331.888,237.512 C331.888,234.311984 332.549327,231.709343 333.872,229.704 C335.194673,227.698657 337.285319,226.696 340.144,226.696 C343.002681,226.696 345.103993,227.698657 346.448,229.704 C347.792007,231.709343 348.464,234.311984 348.464,237.512 C348.464,240.754683 347.792007,243.378657 346.448,245.384 C345.103993,247.389343 343.002681,248.392 340.144,248.392 C337.285319,248.392 335.194673,247.389343 333.872,245.384 C332.549327,243.378657 331.888,240.754683 331.888,237.512 Z M325.104,237.512 C325.104,239.773345 325.41333,241.885324 326.032,243.848 C326.65067,245.810676 327.57866,247.527993 328.816,249 C330.05334,250.472007 331.610657,251.623996 333.488,252.456 C335.365343,253.288004 337.583987,253.704 340.144,253.704 C342.704013,253.704 344.922657,253.288004 346.8,252.456 C348.677343,251.623996 350.245327,250.472007 351.504,249 C352.762673,247.527993 353.690664,245.810676 354.288,243.848 C354.885336,241.885324 355.184,239.773345 355.184,237.512 C355.184,235.293322 354.885336,233.202676 354.288,231.24 C353.690664,229.277324 352.762673,227.560007 351.504,226.088 C350.245327,224.615993 348.677343,223.464004 346.8,222.632 C344.922657,221.799996 342.704013,221.384 340.144,221.384 C337.583987,221.384 335.365343,221.799996 333.488,222.632 C331.610657,223.464004 330.05334,224.615993 328.816,226.088 C327.57866,227.560007 326.65067,229.277324 326.032,231.24 C325.41333,233.202676 325.104,235.293322 325.104,237.512 Z M369.008,227.016 L367.984,222.088 L362.224,222.088 L362.224,253 L369.008,253 L369.008,232.072 C369.69067,230.663993 370.618661,229.608004 371.792,228.904 C372.965339,228.199996 374.298659,227.848 375.792,227.848 C377.413341,227.848 378.714662,228.274662 379.696,229.128 L381.36,222.728 C381.061332,222.514666 380.549337,222.237335 379.824,221.896 C379.098663,221.554665 378.160006,221.384 377.008,221.384 C375.983995,221.384 375.056004,221.554665 374.224,221.896 C373.391996,222.237335 372.656003,222.674664 372.016,223.208 C371.375997,223.741336 370.810669,224.34933 370.32,225.032 C369.829331,225.71467 369.392002,226.375997 369.008,227.016 Z" id="Combined-Shape"></path>
            <path d="M241.734919,96 C256.416402,96 268.190415,96 277.056959,96 C290.614842,96 304.172725,96 317.730608,96 L317.730608,96 C318.282893,96 318.730608,96.4477153 318.730608,97 C318.730608,97.2276205 318.652954,97.44843 318.510476,97.625944 L254,178 L158,178 L241.734919,96 Z" id="Rectangle-2"></path>
            <path d="M363.250682,2.8127634 L254.751778,125 L187.587128,125.000015 C186.482551,125.000015 185.587113,124.104578 185.587113,123 C185.587113,122.363874 185.889724,121.765685 186.402183,121.3888 C202.952078,109.217293 230.114866,89.8927818 267.890547,63.4152656 C290.050333,47.8831542 332.429616,16.4751156 348.709472,5.86594948 C357.225548,0.316240587 362.126185,-1.06215286 363.411383,1.73076915 L363.411364,1.73077811 C363.577293,2.0913654 363.514238,2.5159572 363.250682,2.8127634 Z" id="Triangle"></path>
            <path d="M173.734919,286 C188.416402,286 200.190415,286 209.056959,286 C222.614842,286 236.172725,286 249.730608,286 L249.730608,286 C250.282893,286 250.730608,286.447715 250.730608,287 C250.730608,287.22762 250.652954,287.44843 250.510476,287.625944 L186,368 L90,368 L173.734919,286 Z" id="Rectangle-2" transform="translate(170.365304, 327.000000) rotate(180.000000) translate(-170.365304, -327.000000) "></path>
            <path d="M154.751166,338.000015 L221.915816,338 C223.020394,338 223.915831,338.895437 223.915831,340.000015 C223.915831,340.636141 223.613221,341.23433 223.100762,341.611215 C206.550867,353.782722 179.388078,373.107233 141.612397,399.584749 C119.452611,415.116861 77.0733284,446.524899 60.7934722,457.134066 C52.2773965,462.683774 47.3767595,464.062168 46.0915612,461.269246 C45.9256519,460.90865 45.9887064,460.484058 46.2522622,460.187252 L154.751166,338.000015 Z" id="Triangle"></path>
        </g>
    </g>
</svg>